<?xml version="1.0" encoding="UTF-8"?>
<!-- Generator: visioncortex VTracer 0.6.3 -->
<svg version="1.1" xmlns="http://www.w3.org/2000/svg" width="1280" height="840">
<path d="M0 0 C422.4 0 844.8 0 1280 0 C1280 175.89 1280 351.78 1280 533 C1265.15 538.94 1248.53 536.91 1232.94 535.69 C1231.58 535.58 1231.58 535.58 1230.2 535.47 C1227.6 535.26 1225 535.05 1222.4 534.82 C1221.61 534.76 1220.83 534.69 1220.02 534.62 C1214.47 534.12 1214.47 534.12 1211.98 533.49 C1208.82 532.71 1205.61 532.76 1202.38 532.68 C1201.63 532.66 1200.89 532.64 1200.12 532.62 C1198.55 532.58 1196.98 532.54 1195.4 532.5 C1193.04 532.44 1190.67 532.37 1188.3 532.31 C1179.87 532.08 1171.44 531.93 1163 532 C1164.43 528.34 1166.07 524.96 1167.94 521.5 C1174.32 508.76 1176.48 493.75 1172 480 C1168.95 472.64 1165.75 465.84 1159.66 460.5 C1157.96 458.96 1156.78 457.36 1155.44 455.5 C1148.78 447.61 1136.94 443.84 1127 443 C1126.29 442.93 1125.58 442.86 1124.85 442.79 C1111.81 442.16 1093.96 446.69 1083 454 C1079.94 454.25 1079.94 454.25 1077 454 C1075 452 1075 452 1074.88 449.73 C1074.94 448.8 1075 447.87 1075.06 446.91 C1075.11 445.88 1075.17 444.84 1075.23 443.78 C1075.3 442.7 1075.37 441.62 1075.44 440.5 C1077.06 427.89 1077.06 427.89 1073.69 416.35 C1066.55 410.64 1057.55 409.81 1048.75 408.88 C1048.01 408.79 1047.28 408.71 1046.52 408.63 C1019.27 405.69 991.68 405.71 964.3 405.14 C958.58 405.02 952.85 404.87 947.13 404.72 C913.85 403.83 880.63 404.16 847.36 404.78 C838.96 404.94 830.58 405.02 822.19 404.98 C809.28 404.93 796.4 405.39 783.5 405.88 C781.66 405.94 781.66 405.94 779.79 406.01 C761.16 406.69 742.58 407.52 724 409 C722.94 409.08 721.87 409.17 720.78 409.25 C717.75 409.49 714.72 409.74 711.69 410 C710.84 410.07 709.99 410.14 709.12 410.21 C703.32 410.75 697.69 411.76 692 413 C690.81 417.21 690.96 421.24 691.09 425.59 C691.11 426.43 691.13 427.28 691.15 428.15 C691.22 430.89 691.3 433.63 691.38 436.38 C691.43 438.27 691.48 440.16 691.53 442.05 C691.64 445.74 691.74 449.44 691.86 453.13 C691.97 456.94 692.07 460.74 692.15 464.55 C692.7 484.12 695.56 503.71 699.41 522.89 C700.18 526.92 700.64 530.92 701 535 C682.88 540.52 658.22 542.11 640.62 533.81 C635 531.24 629.53 531.63 623.44 531.9 C620.6 532.02 617.77 532.09 614.93 532.17 C597.68 532.27 597.68 532.27 580.89 535.73 C573.83 538.13 567.42 538.39 560 538.25 C558.87 538.24 557.74 538.24 556.57 538.23 C548.31 538.16 548.31 538.16 546 537 C541.42 536.72 536.96 536.83 532.44 537.62 C528.72 538.03 526.21 537.51 522.63 536.61 C511.38 533.99 499.01 532.34 487.64 534.98 C481.17 536.3 474.73 536.46 468.14 536.63 C466.83 536.67 465.52 536.72 464.17 536.76 C461.41 536.85 458.66 536.93 455.9 537.01 C452.4 537.1 448.91 537.21 445.41 537.32 C442.03 537.43 438.64 537.53 435.26 537.63 C433.41 537.69 433.41 537.69 431.52 537.75 C410.42 538.34 410.42 538.34 401.44 537.5 C393.88 536.95 386.33 536.85 378.75 536.81 C377.57 536.8 376.38 536.79 375.16 536.77 C369.81 536.77 364.77 536.92 359.52 538 C353 539.33 346.57 539.29 339.94 539.25 C338.74 539.26 337.53 539.27 336.29 539.27 C327.98 539.26 319.96 538.97 312.33 535.36 C308.41 533.76 305.89 533.82 301.69 534.19 C301.03 534.24 300.38 534.3 299.71 534.36 C296.11 534.69 292.53 535.04 288.95 535.51 C278.19 536.89 267.59 537.31 256.74 537.26 C254.07 537.25 251.39 537.26 248.72 537.27 C239.36 537.28 230.23 536.81 220.94 535.72 C212.66 534.77 204.45 534.74 196.12 534.81 C194.47 534.82 192.81 534.83 191.16 534.83 C177.71 534.91 164.26 535.16 150.81 535.44 C149.85 535.46 148.9 535.48 147.91 535.5 C133.98 535.79 133.98 535.79 120.09 536.9 C118 537 118 537 116 536 C113.54 536.01 111.14 536.1 108.69 536.25 C107.89 536.29 107.09 536.34 106.26 536.38 C95.42 537.03 84.6 537.98 73.78 538.9 C57.38 540.28 41.08 541.17 24.63 541.13 C22.08 541.12 19.53 541.13 16.98 541.14 C15.34 541.14 13.71 541.13 12.07 541.13 C11.32 541.13 10.56 541.14 9.79 541.14 C6.28 541.12 3.43 540.86 0 540 C0 361.8 0 183.6 0 0 Z " fill="#000000" transform="translate(0,0)"/>
<path d="M0 0 C8.37 6.7 12.65 13.95 16 24 C17.32 36.82 14.9 45.07 7.07 55.59 C2.39 61.23 -4.64 68.24 -12.23 69.32 C-20.93 70.04 -29.57 70.07 -38.3 69.96 C-39.75 69.95 -39.75 69.95 -41.23 69.94 C-42.1 69.93 -42.97 69.91 -43.87 69.9 C-46.05 69.86 -46.05 69.86 -48 71 C-53.1 71.29 -58.05 70.88 -63.12 70.31 C-64.28 70.18 -65.44 70.06 -66.63 69.93 C-71.14 68.69 -72.91 67.54 -76 64 C-76.21 60.95 -76.12 58.98 -75.56 56.06 C-75.47 55.37 -75.37 54.68 -75.27 53.97 C-74.47 48.91 -73.23 44 -69.28 40.46 C-68.4 39.92 -68.4 39.92 -67.5 39.38 C-61.89 35.91 -60.4 31.61 -58.69 25.44 C-54.96 12.95 -49.99 4.33 -39 -3 C-25.03 -7.11 -12.44 -8.51 0 0 Z " fill="#000000" transform="translate(1142,466)"/>
</svg>
